<svg xmlns="http://www.w3.org/2000/svg" xmlns:xlink="http://www.w3.org/1999/xlink" width="2604" height="25" viewBox="0 0 2604 25"><defs><path id="c9o3a" d="M2477.007 731.682c-13.156 1.043-27.921 1.356-47.66.313l-174.14-9.706c-14.82-.836-29.574-1.878-44.394-.73l-131.41 9.917c-13.156 1.043-31.24 1.562-47.66.312l-174.194-9.705c-16.42-.836-34.493-1.672-49.258-.524l-131.465 9.917c-13.156 1.043-31.23 1.562-47.66.312l-174.14-9.705c-14.809-.836-32.893-1.672-49.313-.524l-144.357 10.793c-10.318.425-21.929.394-36.147-.357l-174.15-9.706c-14.81-.836-29.575-1.878-44.395-.73l-131.41 9.917c-13.156 1.043-31.23 1.562-47.649.312L653.4 722.083c-16.42-.836-34.493-1.672-49.258-.524l-131.465 9.917c-13.156 1.043-31.23 1.562-47.648.312l-174.151-9.705c-14.81-.836-32.894-1.672-49.314-.524l-213.561 15.967v6.053l111.737-8.452c14.755-1.149 36.092-.21 49.258.52l174.195 9.705c18.074 1.047 32.84.629 45.994-.312l133.075-9.913c13.155-1.043 36.147-.21 47.648.52l174.151 9.705c19.728 1.047 34.493.73 47.648-.312l131.465-9.913c14.766-1.149 36.158-.21 49.259.52l174.205 9.705c18.074 1.047 32.84.629 45.994-.312l138.793-10.228c13.9-.466 30.593.22 41.711.835l174.206 9.705c18.073 1.047 32.84.629 45.994-.312l133.064-9.913c13.155-1.043 36.158-.21 47.66.52l174.14 9.705c19.738 1.047 34.503.73 47.658-.312l131.465-9.913c14.755-1.149 36.158-.21 49.258.52l174.195 9.705c18.085 1.047 32.84.629 45.994-.312l215.227-15.861v-5.948z"/><linearGradient id="c9o3b" x1="-12" x2="2592" y1="734" y2="733" gradientUnits="userSpaceOnUse"><stop offset="0" stop-color="#f6e3cf"/><stop offset=".5" stop-color="#fff8f0"/><stop offset="1" stop-color="#f6e3cf"/></linearGradient></defs><g><g transform="translate(12 -721)"><use xlink:href="#c9o3a"/><use fill="url(#c9o3b)" xlink:href="#c9o3a"/></g></g></svg>