<svg xmlns="http://www.w3.org/2000/svg" xmlns:xlink="http://www.w3.org/1999/xlink" width="2604" height="25" viewBox="0 0 2604 25"><defs><path id="ei5va" d="M2477.007 1564.683c-13.156 1.042-27.921 1.356-47.66.312l-174.14-9.706c-14.82-.835-29.574-1.878-44.394-.73l-131.41 9.917c-13.156 1.043-31.24 1.563-47.66.312l-174.194-9.705c-16.42-.837-34.493-1.672-49.258-.523l-131.465 9.916c-13.156 1.043-31.23 1.563-47.66.312l-174.14-9.705c-14.809-.837-32.893-1.672-49.313-.523l-144.357 10.791c-10.318.426-21.929.395-36.147-.356l-174.15-9.706c-14.81-.835-29.575-1.878-44.395-.73l-131.41 9.917c-13.156 1.043-31.23 1.563-47.649.312l-174.205-9.705c-16.42-.837-34.493-1.672-49.258-.523l-131.465 9.916c-13.156 1.043-31.23 1.563-47.648.312l-174.151-9.705c-14.81-.837-32.894-1.672-49.314-.523l-213.561 15.966v6.053l111.737-8.452c14.755-1.148 36.092-.21 49.258.52l174.195 9.705c18.074 1.047 32.84.629 45.994-.312l133.075-9.913c13.155-1.042 36.147-.21 47.648.52l174.151 9.705c19.728 1.047 34.493.73 47.648-.312l131.465-9.913c14.766-1.148 36.158-.21 49.259.52l174.205 9.705c18.074 1.047 32.84.629 45.994-.312l138.793-10.228c13.9-.466 30.593.22 41.711.835l174.206 9.705c18.073 1.047 32.84.629 45.994-.312l133.064-9.913c13.155-1.042 36.158-.21 47.66.52l174.14 9.705c19.738 1.047 34.503.73 47.658-.312l131.465-9.913c14.755-1.148 36.158-.21 49.258.52l174.195 9.705c18.085 1.047 32.84.629 45.994-.312l215.227-15.861v-5.948z"/></defs><g><g transform="translate(12 -1554)"><use xlink:href="#ei5va"/><use fill="#fff8ef" xlink:href="#ei5va"/></g></g></svg>