<svg xmlns="http://www.w3.org/2000/svg" xmlns:xlink="http://www.w3.org/1999/xlink" width="103" height="81" viewBox="0 0 103 81"><defs><path id="pwvfa" d="M1312.926 2459.01a1.56 1.56 0 0 0-1.128.352 1.51 1.51 0 0 0-.537 1.052l-1.183 13.864a1.543 1.543 0 0 0 1.412 1.674 1.544 1.544 0 0 0 1.674-1.412l.857-10.14 39.582 46.937c.555.657 1.524.74 2.182.185.657-.555.74-1.525.186-2.181l-39.582-46.938 10.148.86a1.544 1.544 0 0 0 1.674-1.412 1.542 1.542 0 0 0-1.412-1.674z"/><path id="pwvfb" d="M1256.926 2487.01a1.56 1.56 0 0 0-1.128.352 1.512 1.512 0 0 0-.538 1.052l-1.182 13.864a1.543 1.543 0 0 0 1.411 1.674 1.544 1.544 0 0 0 1.675-1.412l.857-10.14 39.582 46.937c.555.657 1.524.74 2.182.185a1.54 1.54 0 0 0 .186-2.181l-39.582-46.938 10.148.86a1.544 1.544 0 0 0 1.674-1.412 1.542 1.542 0 0 0-1.411-1.674z"/><path id="pwvfc" d="M1297.291 2485.01c-.42-.036-.83.101-1.128.352a1.511 1.511 0 0 0-.538 1.053l-1.182 13.864c-.074.856.555 1.601 1.411 1.674a1.544 1.544 0 0 0 1.675-1.412l.857-10.14 26.029 34.582a1.542 1.542 0 0 0 2.18.184 1.54 1.54 0 0 0 .187-2.18l-26.029-34.583 10.148.86a1.544 1.544 0 0 0 1.675-1.413 1.542 1.542 0 0 0-1.412-1.673z"/></defs><g><g transform="translate(-1254 -2459)"><use fill="#f64d01" xlink:href="#pwvfa"/></g><g transform="translate(-1254 -2459)"><use fill="#f64d01" xlink:href="#pwvfb"/></g><g transform="translate(-1254 -2459)"><use fill="#f64d01" xlink:href="#pwvfc"/></g></g></svg>