<svg xmlns="http://www.w3.org/2000/svg" xmlns:xlink="http://www.w3.org/1999/xlink" width="22" height="19" viewBox="0 0 22 19"><defs><path id="m6kba" d="M1647 646.33v2.461c-.002.664-.884 1.185-2.2 1.572v2.3c0 .11-.026.215-.072.316.757.302 1.14.661 1.166 1.093h.006v2.461c-.004 1.171-2.75 1.898-5.8 2.237-.022.004-.043.012-.067.012-.007 0-.013-.003-.02-.003-.588.064-1.185.114-1.777.15-.012 0-.023.006-.036.006-.007 0-.013-.003-.02-.003-.75.043-1.489.065-2.18.065-.691 0-1.43-.022-2.181-.065-.007 0-.012.003-.02.003-.012 0-.023-.005-.035-.006a37.331 37.331 0 0 1-1.778-.15c-.007 0-.013.005-.02.005-.023 0-.044-.01-.066-.014-3.051-.338-5.797-1.065-5.8-2.235v-2.463h.005a.754.754 0 0 1 .05-.219c-.717-.33-1.154-.723-1.155-1.19v-2.461h.004c.035-.592.755-1.057 2.196-1.413v-2.458h.005a.762.762 0 0 1 .033-.18c-1.337-.388-2.236-.911-2.238-1.58v-2.462h.006c.131-2.05 8.888-2.112 9.894-2.112 1.006 0 9.762.062 9.894 2.112h.006v2.461a.77.77 0 0 1-.08.33c1.493.358 2.24.83 2.276 1.43zm-2.933 6.332v-1.455a5.615 5.615 0 0 1-1.1.484v1.677c.422-.16.742-.323.935-.486l.125-.104a.22.22 0 0 0 .04-.116zm-7.57 1.729l.236-.01v-1.758a48.15 48.15 0 0 1-1.105.034l-.059.001-.302.004v1.758l.398-.004c.054-.002.107-.002.16-.005.228-.004.45-.011.672-.02zm-2.177.028l.213.002v-1.76l-.302-.003h-.058c-.37-.008-.739-.017-1.106-.035v1.757c.197.01.395.018.595.024l.062.001a34.328 34.328 0 0 0 .596.014zm-6.583-.768c.282.074.593.147.93.215v-1.718c-.39-.073-.758-.154-1.1-.243v1.7l.035.01.135.036zm7.535 2.877c-.369-.006-.738-.017-1.105-.033v1.755c.47.023.96.037 1.466.042v-1.759l-.302-.004h-.059zm1.397 0l-.303.005v1.758c.507-.004.996-.018 1.467-.04v-1.756c-.367.016-.737.027-1.106.033h-.058zm1.897-.074v1.754c.382-.025.748-.056 1.1-.093v-1.747c-.36.034-.728.062-1.1.086zm1.834 1.578c.388-.049.754-.102 1.1-.16v-1.728c-.355.055-.722.105-1.1.148zm1.833-.296c.406-.083.773-.17 1.1-.261v-1.7c-.342.088-.71.17-1.1.243zm-13.566-1.961v1.7c.326.091.694.178 1.1.26v-1.717c-.39-.073-.758-.155-1.1-.243zm1.833 2.098c.345.057.712.111 1.1.16v-1.74a28.596 28.596 0 0 1-1.1-.149zm1.833.242c.352.037.72.068 1.1.093v-1.754c-.372-.024-.74-.052-1.1-.086zm0-3.778v-1.753c-.371-.024-.74-.052-1.1-.085v1.746l.08.01c.036.002.073.006.11.01.298.028.602.051.91.072zm-2.933-2.064v1.728c.345.059.712.112 1.1.162v-1.74a26.318 26.318 0 0 1-1.1-.15zm8.47 2.035c.238-.019.47-.04.696-.063v-1.747c-.36.034-.728.062-1.1.086v1.754c.083-.006.164-.01.245-.017l.16-.013zm2.53-.307v-1.728c-.355.056-.722.105-1.1.15v1.74c.387-.05.754-.103 1.1-.162zm.733-.136c.406-.082.773-.17 1.1-.26v-1.7c-.342.089-.71.168-1.1.243zm-4.933-3.323c.174.005.354.005.533.007v-1.758l-.303-.003-.057-.001c-.37-.007-.739-.018-1.106-.034v1.757l.042.001c.265.013.534.024.81.029l.081.002zm-8.236-4.926c.182.045.372.088.567.13.044.009.09.017.136.028v-1.718c-.39-.074-.758-.156-1.1-.243v1.7c.126.034.258.07.397.103zm6.208-1.05c-.369-.008-.738-.018-1.106-.035v1.756c.483.023.974.036 1.467.04v-1.757l-.302-.004h-.059zm1.397 0l-.302.004v1.757c.132-.001.265-.001.396-.004l.119-.002c.254-.005.505-.014.75-.024h.016c.063-.003.123-.008.185-.01v-1.756c-.367.016-.736.027-1.106.034h-.058zm8.498.003v-1.455a5.65 5.65 0 0 1-1.1.484v1.673c.38-.14.678-.287.872-.432l.133-.1.01.002c.055-.061.085-.118.085-.172zm-3.667 1.337v-1.725a28.52 28.52 0 0 1-1.1.15v1.736c.386-.047.752-.102 1.1-.16zm1.833-.397v-1.696c-.342.087-.71.169-1.1.243v1.715c.402-.083.772-.17 1.1-.262zm-4.766-1.017v1.752c.379-.026.745-.057 1.1-.093v-1.747c-.361.035-.729.063-1.1.088zm-5.134 1.75v-1.75a38.92 38.92 0 0 1-1.1-.088v1.748c.359.035.727.066 1.1.09zm-2.933-2.06v1.727l.12.02c.203.033.41.064.622.094l.138.018c.072.01.147.018.22.027v-1.738a28.506 28.506 0 0 1-1.1-.149zm5.133 6.285v-1.754a39.018 39.018 0 0 1-1.1-.085v1.747l.03.003.143.014c.224.022.453.04.688.06.049.002.099.007.148.01l.091.005zm-2.488-.264c.21.03.43.06.655.09v-1.741a26.375 26.375 0 0 1-1.1-.149v1.726c.138.024.275.047.42.07.008 0 .017.002.025.004zm-2.279-2.168v1.693c.328.093.695.181 1.1.265v-1.715c-.389-.074-.757-.155-1.1-.243zm-1.833-.699v1.455c0 .012.004.024.006.035l.025.038c.121.195.493.414 1.07.628v-1.672a5.541 5.541 0 0 1-1.1-.484zm9.836 1.452l-.302.003v1.757a36.71 36.71 0 0 0 1.466-.04v-1.755c-.367.015-.736.027-1.106.034l-.058.001zm4.831 1.342v-1.727c-.355.056-.722.106-1.1.149v1.738c.094-.012.19-.022.284-.035l.291-.041c.167-.023.33-.05.49-.077a.243.243 0 0 0 .035-.007zm-2.478.303c.219-.017.432-.038.645-.06v-1.745c-.361.033-.729.061-1.1.085v1.752c.138-.01.28-.017.416-.028.013 0 .026-.002.039-.004zm4.312-.698v-1.7c-.343.088-.711.17-1.1.243v1.716l.087-.017c.095-.019.188-.04.28-.06.197-.045.39-.09.572-.14l.16-.042zm-.287-4.242c-.023.014-.05.027-.073.042l-.129.074c-.038.02-.074.042-.115.063-.09.047-.19.09-.29.135l-.083.035c-.096.04-.195.079-.299.116l-.063.023c-.123.044-.25.085-.382.128-.046.013-.093.025-.14.04a13.35 13.35 0 0 1-.233.066c-1.718.47-4.187.775-6.851.814a32.627 32.627 0 0 1-1.418-.005c-.46-.01-.915-.029-1.364-.053l-.007.001-.014-.002a35.44 35.44 0 0 1-1.818-.15h-.002l-.007-.001a25.616 25.616 0 0 1-2.836-.463c-.026-.007-.054-.011-.079-.017-.004.007-.004.014-.006.02.042.238.605.553 1.604.85 1.297.384 3.328.736 5.9.846l.397.014.332.01a39.034 39.034 0 0 0 1.858 0c.112-.004.222-.005.331-.008l.397-.016c2.573-.11 4.603-.462 5.9-.846 1.007-.3 1.572-.616 1.605-.855-.041-.145-.474-.52-2.115-.861zm-18.408-3.354c.044.237.607.552 1.604.848 1.297.384 3.327.736 5.899.845a74.146 74.146 0 0 0 .729.024c.303.007.611.012.929.012a42.414 42.414 0 0 0 1.658-.036c2.572-.109 4.602-.461 5.9-.845.996-.296 1.559-.611 1.603-.848-.057-.524-3.115-1.437-9.161-1.437-6.046 0-9.104.913-9.161 1.437zm1.094 3.144v-1.685a5.642 5.642 0 0 1-1.1-.484v1.456c0 .198.387.456 1.1.713zm-1.096 4.94c.033.239.597.557 1.606.856 1.297.385 3.327.737 5.899.846l.397.016.332.008a36.135 36.135 0 0 0 1.63.005c.091-.001.183-.002.272-.006.084-.002.165-.005.248-.006 2.78-.086 4.967-.456 6.336-.862a6.821 6.821 0 0 0 1.085-.407c-1.23.255-2.683.432-4.233.52l-.01.001h-.004a41.678 41.678 0 0 1-2.195.063c-.221 0-.447-.003-.676-.006a41.156 41.156 0 0 1-1.523-.057h-.004c-1.546-.087-2.964-.263-4.153-.505l-.288-.06c-.03-.007-.062-.015-.092-.02-1.294-.286-2.333-.667-2.835-1.153l-.02-.016c-1.36.32-1.731.651-1.772.783zm.882 3.07l.005-.003.209.078v-1.677a5.642 5.642 0 0 1-1.1-.485v1.457c0 .177.31.403.886.63zm1.314 3.953v-1.685a5.505 5.505 0 0 1-1.1-.485v1.457c.001.198.387.455 1.1.713zm17.233-.713v-1.457c-.293.178-.664.34-1.1.485v1.685c.714-.258 1.1-.515 1.1-.713zm-.951-2.992c-.033.022-.073.043-.108.066l-.118.07-.101.056c-.644.342-1.58.618-2.663.832l-.077.015-.35.064c-.573.103-1.19.192-1.842.263-.008.002-.014.006-.023.006l-.006-.002a34.44 34.44 0 0 1-1.822.153h-.005-.003a38.412 38.412 0 0 1-4.396 0h-.003c-1.84-.105-3.545-.337-4.88-.665l-.18-.045-.118-.031a7.013 7.013 0 0 1-.304-.085l-.035-.01c-.116-.035-.23-.07-.34-.107.071.236.632.541 1.602.828 1.297.385 3.327.737 5.9.846.131.005.263.011.399.015l.328.01c.304.007.612.011.93.011.317 0 .626-.004.929-.01l.332-.01c.134-.004.265-.01.396-.016 2.573-.11 4.603-.461 5.9-.845 1.002-.297 1.565-.614 1.605-.85-.024-.09-.224-.31-.947-.559zm2.052-4.75v-1.455a5.572 5.572 0 0 1-1.1.484v1.685c.713-.258 1.1-.514 1.1-.714z"/></defs><g><g transform="translate(-1625 -640)"><use fill="#b6aea8" xlink:href="#m6kba"/></g></g></svg>