<svg xmlns="http://www.w3.org/2000/svg" xmlns:xlink="http://www.w3.org/1999/xlink" width="42" height="42" viewBox="0 0 42 42"><defs><path id="jb10a" d="M1183.947 63.555a.805.805 0 0 1-.8.8.8.8 0 1 1 .8-.8zm24.078 3.431c.377.547.599 1.21.599 1.923a3.4 3.4 0 0 1-2.595 3.3 3.38 3.38 0 0 1 .577 1.892 3.4 3.4 0 0 1-3.397 3.397h-13.993c-1.544 0-3.056-.285-4.494-.85l-1.13-.443a2.603 2.603 0 0 1-2.249 1.293h-11.042a.8.8 0 0 1-.801-.8v-20.77a.8.8 0 0 1 .8-.8h11.043c.86 0 1.624.419 2.099 1.065l2.205-1.2a7.523 7.523 0 0 0 3.48-4.052l2.207-6.102a.803.803 0 0 1 .986-.494l1.405.428a5.363 5.363 0 0 1 3.233 2.696 5.363 5.363 0 0 1 .316 4.198l-1.166 3.462h8.911a3.4 3.4 0 0 1 3.397 3.397c0 .693-.21 1.34-.568 1.878a3.402 3.402 0 0 1 2.652 3.313 3.403 3.403 0 0 1-2.475 3.27zm.873-3.269c0-.99-.805-1.795-1.795-1.795h-8.236a.8.8 0 1 1 0-1.602h6.152c.99 0 1.796-.805 1.796-1.794 0-.991-.806-1.798-1.796-1.798h-10.025a.8.8 0 0 1-.76-1.055l1.522-4.516a3.775 3.775 0 0 0-.222-2.955 3.772 3.772 0 0 0-2.275-1.898l-.677-.205-1.95 5.386a9.118 9.118 0 0 1-4.219 4.914l-2.466 1.342v2.71a.801.801 0 0 1-1.602 0v-2.72c0-.552-.45-1.001-1.002-1.001h-10.241v19.166h10.241c.553 0 1.002-.45 1.002-1.002v-8.126a.801.801 0 0 1 1.602 0v7.857l1.36.532a10.66 10.66 0 0 0 3.91.74h13.992c.99 0 1.795-.806 1.795-1.796s-.805-1.794-1.795-1.794h-4.342a.802.802 0 0 1 0-1.602h6.36c.99 0 1.795-.805 1.795-1.796 0-.99-.805-1.795-1.795-1.795h-6.36a.8.8 0 1 1 0-1.602h8.236c.99 0 1.795-.805 1.795-1.795zm-28.413 8.3a2.246 2.246 0 0 1-2.243 2.242 2.246 2.246 0 0 1-2.243-2.243 2.246 2.246 0 0 1 2.243-2.243 2.246 2.246 0 0 1 2.243 2.243zm-1.601 0a.642.642 0 1 0-1.284 0 .642.642 0 0 0 1.284 0zm15.346-34.718a.805.805 0 0 1-.801.801.805.805 0 0 1-.801-.801.804.804 0 0 1 .8-.8.805.805 0 0 1 .802.8zm0 2.99v1.948a.8.8 0 1 1-1.602 0v-1.949a.801.801 0 0 1 1.602 0zm10.51 7.521a.8.8 0 0 1-.802.801H1199a.8.8 0 1 1 0-1.601h4.938a.8.8 0 0 1 .801.8zm-16.084-.002a.801.801 0 0 1-.8.802h-4.939a.801.801 0 0 1 0-1.602h4.939a.8.8 0 0 1 .8.8zm.811-3.96a.795.795 0 0 1-.566.234.795.795 0 0 1-.566-.235l-2.332-2.331a.801.801 0 0 1 1.133-1.133l2.331 2.332a.801.801 0 0 1 0 1.132zm11.387-2.33l-2.332 2.331a.796.796 0 0 1-.566.234.801.801 0 0 1-.566-1.367l2.331-2.331a.802.802 0 0 1 1.133 1.133z"/></defs><g><g transform="translate(-1169 -36)"><use fill="#b18867" xlink:href="#jb10a"/></g></g></svg>