<svg xmlns="http://www.w3.org/2000/svg" xmlns:xlink="http://www.w3.org/1999/xlink" width="34" height="43" viewBox="0 0 34 43"><defs><path id="88qca" d="M1786.408 68.253v11.43a.817.817 0 0 1-1.19.724l-15.264-7.943-15.263 7.943a.818.818 0 0 1-.8-.026.817.817 0 0 1-.391-.698V54.799a.815.815 0 0 1 1.63 0v23.543l14.448-7.52a.816.816 0 0 1 .752 0l14.449 7.52v-10.09a.815.815 0 0 1 1.63 0zm0-28.646v22.51a.814.814 0 0 1-1.63 0V40.423h-29.649v7.819a.815.815 0 0 1-1.63 0v-8.635c0-.45.366-.814.815-.814h31.28c.45 0 .814.365.814.814zm-6.22 14.38l-4.525 4.412 1.07 6.23a.816.816 0 0 1-1.181.86l-5.596-2.94-5.594 2.942a.81.81 0 0 1-.858-.061.816.816 0 0 1-.324-.798l1.067-6.23-4.527-4.411a.813.813 0 0 1 .45-1.388l6.255-.912 2.796-5.668a.815.815 0 0 1 1.46 0l2.8 5.667 6.256.907a.814.814 0 0 1 .451 1.39zm-2.319-.014l-5.045-.732a.817.817 0 0 1-.614-.445l-2.258-4.572-2.255 4.572a.815.815 0 0 1-.613.446l-5.046.734 3.652 3.559c.193.187.28.456.235.72l-.86 5.026 4.512-2.374a.821.821 0 0 1 .758 0l4.513 2.372-.863-5.025a.815.815 0 0 1 .234-.722zm-22.74-2.419a.82.82 0 0 1-.815.815.82.82 0 0 1-.814-.815.819.819 0 0 1 1.39-.576.824.824 0 0 1 .24.576zm31.28 13.549a.819.819 0 0 1-1.39.576.82.82 0 0 1-.24-.576c0-.215.087-.423.239-.576a.821.821 0 0 1 .575-.238c.215 0 .425.087.576.238a.822.822 0 0 1 .24.576z"/></defs><g><g transform="translate(-1753 -38)"><use fill="#b18867" xlink:href="#88qca"/></g></g></svg>