<svg xmlns="http://www.w3.org/2000/svg" xmlns:xlink="http://www.w3.org/1999/xlink" width="42" height="36" viewBox="0 0 42 36"><defs><path id="fnk7a" d="M1522.957 71.053a12.213 12.213 0 0 1-7.487 5.735 12.262 12.262 0 0 1-8.866-.971l.366.633a.804.804 0 1 1-1.39.803l-.987-1.708a14.475 14.475 0 0 1-6.559 1.57c-5.024 0-9.911-2.598-12.594-7.245a14.513 14.513 0 0 1-1.754-9.56.834.834 0 0 1 .007-.083l2.454-17.072a.804.804 0 0 1 1.096-.63l6.27 2.544a.803.803 0 0 1-.604 1.489l-5.319-2.16-2.292 15.956c0 .04-.004.08-.011.12a12.903 12.903 0 0 0 1.544 8.593c3.425 5.932 10.891 8.11 16.958 5.086l-1.347-2.333-10.902-2.921a.803.803 0 0 1 .416-1.551l9.35 2.504-2.972-5.148-7.563-2.027a.802.802 0 1 1 .416-1.55l6.012 1.61-2.344-4.058-4.554-1.22a.803.803 0 0 1 .415-1.552l3.004.805-2.22-3.844a.803.803 0 0 1 1.39-.803l2.22 3.845.806-3.004a.803.803 0 1 1 1.55.416l-1.22 4.554 2.343 4.059 1.611-6.012a.804.804 0 0 1 1.55.415l-2.026 7.563 2.973 5.149 2.505-9.351a.8.8 0 0 1 .984-.567.801.801 0 0 1 .567.982l-2.92 10.902 1.347 2.334a12.867 12.867 0 0 0 5.355-7.43 12.804 12.804 0 0 0-1.28-9.799 12.917 12.917 0 0 0-6.59-5.605c-.017-.005-.034-.013-.05-.02l-3.6-1.462a.801.801 0 1 1 .604-1.486l3.632 1.474c.006 0 .01.003.016.006a14.514 14.514 0 0 1 7.378 6.29 14.39 14.39 0 0 1 1.945 7.392l1.044-1.809-1.01-3.773a.803.803 0 1 1 1.55-.415l.596 2.222 1.708-2.96a.803.803 0 0 1 1.39.803l-1.708 2.959 2.222-.595a.803.803 0 1 1 .416 1.55l-3.773 1.013-1.785 3.09 4.747-1.271a.804.804 0 0 1 .416 1.551l-6.452 1.728a14.525 14.525 0 0 1-1.842 3.881l7.232-1.937a.802.802 0 1 1 .416 1.552l-9.399 2.517c-.468.47-.969.909-1.501 1.312.017.01.035.018.052.027a10.687 10.687 0 0 0 8.147 1.081 10.616 10.616 0 0 0 6.51-4.985 10.703 10.703 0 0 0 1.282-7.13.79.79 0 0 1-.011-.112l-1.901-13.229-8.533 3.431a.803.803 0 0 1-.599-1.49l9.481-3.812a.804.804 0 0 1 1.094.63l2.06 14.336c.004.025.007.05.008.075a12.312 12.312 0 0 1-1.49 8.103zm-25.955-24.027a.81.81 0 0 1-.235.569.808.808 0 0 1-1.135 0 .812.812 0 0 1-.236-.57c0-.21.086-.416.236-.567a.81.81 0 0 1 .567-.235.81.81 0 0 1 .568.235c.15.15.235.357.235.568zm21.955 7.603a.803.803 0 0 1-1.122-.178l-.004-.006a.803.803 0 0 1 1.3-.944l.004.006c.26.359.18.861-.178 1.122z"/></defs><g><g transform="translate(-1483 -42)"><use fill="#b18867" xlink:href="#fnk7a"/></g></g></svg>