<svg xmlns="http://www.w3.org/2000/svg" xmlns:xlink="http://www.w3.org/1999/xlink" width="36" height="36" viewBox="0 0 36 36"><defs><path id="8hxwa" d="M1574.671 64.718a.703.703 0 1 1-1.405 0 .703.703 0 0 1 1.405 0zm24.124-9.216a.702.702 0 0 1-.287 1.167l-4.148 1.304v11.104a.702.702 0 0 1-.48.667l-12.658 4.219c-.002 0-.004 0-.006.002a.7.7 0 0 1-.45-.007c-.047-.016-8.885-3.33-11.264-4.222a.704.704 0 0 1-.456-.66V58.264l-3.89-1.297a.702.702 0 0 1-.38-1.028l2.681-4.47-4.252-4.253a.703.703 0 0 1 .288-1.168l11.687-3.645a7.035 7.035 0 0 1 6.523-4.404 7.018 7.018 0 0 1 6.712 4.934l10.09 3.114a.703.703 0 0 1 .29 1.169l-4.144 4.144zm-11.06-6.858l5.732 1.91 3.508-3.51-8.261-2.549a7.058 7.058 0 0 1-.98 4.149zm-11.657-3.614a5.629 5.629 0 0 0 9.997 3.54 5.557 5.557 0 0 0 1.253-3.54 5.614 5.614 0 0 0-5.625-5.625 5.628 5.628 0 0 0-5.625 5.625zm-7.545 5.524l6.918-2.306a6.989 6.989 0 0 1-.705-4.237l-9.725 3.032zm9.19 9.118l2.223-3.705-11.29-3.763-2.224 3.705c1.287.429 10.085 3.36 11.29 3.763zm2.574-1.556l-1.659 2.764a.703.703 0 0 1-.603.341c-.216 0 .163.079-7.583-2.49v9.859l9.845 3.691zm11.136-6.757l-4.59-1.53a7 7 0 0 1-5.14 2.232 7.036 7.036 0 0 1-5.455-2.596l-5.682 1.894L1581 54.836zm1.52 7.056l-7.997 2.514a.704.704 0 0 1-.76-.232l-2.493-3.115V72.32l11.25-3.75zm4.027-2.74l-3.513-3.512-11.288 3.763 2.814 3.517zm-18.134 10.806a.703.703 0 0 1-.906.41l-1.564-.585a.703.703 0 0 1 .494-1.317l1.564.586a.703.703 0 0 1 .412.906zm0 3.004a.704.704 0 0 1-.906.41l-4.219-1.581a.704.704 0 0 1 .494-1.316l4.219 1.581a.703.703 0 0 1 .412.906zm6.87-26.067l-4.219 4.22a.703.703 0 0 1-.995 0l-1.406-1.407a.704.704 0 0 1 .995-.995l.909.91 3.722-3.722a.702.702 0 1 1 .994.994z"/></defs><g><g transform="translate(-1563 -38)"><use fill="#92b069" xlink:href="#8hxwa"/></g></g></svg>