<svg xmlns="http://www.w3.org/2000/svg" xmlns:xlink="http://www.w3.org/1999/xlink" width="21" height="24" viewBox="0 0 21 24"><defs><path id="gd6da" d="M1660.604 477.152c.427.56.612 1.185.539 1.804-.073.616-.394 1.179-.932 1.634-.234.198-.471.385-.703.563-.339.264-.662.513-.95.793-.005.011-.016.016-.021.024-.83.732-1.814 1.024-2.926.882-.096-.012-.202-.031-.302-.047-1.64-.32-3.042-1.15-4.085-1.833-2.727-1.823-5.021-4.2-6.822-7.078-1.481-2.385-2.408-4.548-2.93-6.828-.212-.929-.465-2.335-.177-3.778a3.687 3.687 0 0 1 1.32-2.183l1.84-1.503c.006-.003.006-.003.011-.01.539-.414 1.137-.598 1.725-.524.587.074 1.116.401 1.526.94.278.337.543.694.796 1.043.125.179.26.357.391.529l1.154 1.53c.887 1.17.726 2.527-.41 3.445-.15.122-.303.251-.454.373-.401.33-.813.672-1.253.994.215.71.54 1.429 1.05 2.289 1.054 1.737 2.205 3.125 3.52 4.24.128.11.282.216.445.33.113.076.23.159.347.245l1.708-1.375c.546-.447 1.146-.634 1.738-.562.598.076 1.13.42 1.537.98zm-1.036.824l-2.328-3.085-.009-.009c-.13-.19-.352-.415-.65-.456-.304-.033-.588.136-.772.285l-1.85 1.496c-.091.074-.373.305-.772.251a1.008 1.008 0 0 1-.462-.186c-.018-.009-.036-.028-.054-.042a6.008 6.008 0 0 0-.445-.322 6.975 6.975 0 0 1-.553-.41c-1.426-1.207-2.67-2.707-3.799-4.575l-.004-.005c-.618-1.054-1.004-1.92-1.244-2.822l-.01-.048c-.052-.294-.08-.724.385-1.102.006-.01.017-.012.027-.018.465-.336.898-.688 1.354-1.062.156-.121.308-.25.464-.38.574-.46.632-.95.184-1.543l-1.154-1.524c-.134-.186-.27-.365-.4-.544a21.287 21.287 0 0 0-.76-1c-.005-.01-.01-.013-.013-.021-.136-.178-.359-.4-.662-.44-.246-.028-.511.062-.775.264l-1.843 1.489a2.32 2.32 0 0 0-.84 1.398c-.181.903-.132 1.887.169 3.19.486 2.126 1.36 4.157 2.758 6.418 1.698 2.706 3.861 4.953 6.426 6.662.938.623 2.199 1.368 3.618 1.644.071.015.149.023.22.034.752.094 1.355-.085 1.906-.564.341-.326.698-.608 1.047-.878.233-.182.448-.35.66-.533-.005.004-.005 0 0 0 .554-.466.616-.99.18-1.562z"/></defs><g><g transform="translate(-1641 -459)"><use fill="#b6aea8" xlink:href="#gd6da"/></g></g></svg>