<svg xmlns="http://www.w3.org/2000/svg" xmlns:xlink="http://www.w3.org/1999/xlink" width="34" height="34" viewBox="0 0 34 34"><defs><path id="iafya" d="M1161.27 45.8v3.212c0 .576-.468 1.045-1.045 1.045h-3.593a1.047 1.047 0 0 1-1.046-1.045v-3.457c0-4.379 2.502-5.439 4.601-5.556a.664.664 0 0 1 .701.662v1.988c0 .344-.261.63-.603.661-.343.031-1.087.099-1.269 1.444h1.209c.577 0 1.046.47 1.046 1.047zm-1.327.283h-1.631a.665.665 0 0 1-.664-.664c0-2.245 1.023-3.045 1.912-3.315v-.698c-1.287.24-2.646 1.093-2.646 4.15v3.174h3.029zm8.117-.282v3.21c0 .577-.47 1.046-1.046 1.046h-3.593a1.047 1.047 0 0 1-1.046-1.045v-3.457c0-4.379 2.502-5.439 4.601-5.556a.664.664 0 0 1 .701.662v1.988c0 .344-.261.63-.603.661-.343.031-1.087.099-1.269 1.444h1.209c.577 0 1.046.47 1.046 1.047zm-1.328 2.929v-2.647h-1.631a.664.664 0 0 1-.664-.664c0-2.245 1.023-3.045 1.912-3.315v-.698c-1.287.24-2.646 1.093-2.646 4.15v3.174zm4.393-2.898a.668.668 0 0 1-.664.665.668.668 0 0 1-.664-.665.67.67 0 0 1 .194-.47.672.672 0 0 1 .47-.194c.175 0 .346.072.47.195a.67.67 0 0 1 .194.47zM1186 56.972c0 2.725-.951 5.384-2.678 7.487a11.849 11.849 0 0 1-6.163 3.94v4.935a.665.665 0 0 1-1.134.47l-5.03-5.029h-7.193c-6.508 0-11.802-5.295-11.802-11.804 0-2.005.512-3.986 1.482-5.728a.663.663 0 1 1 1.16.645 10.478 10.478 0 0 0-1.314 5.083c0 5.777 4.699 10.476 10.474 10.476h7.47c.175 0 .344.07.469.194l4.09 4.09v-3.859c0-.314.22-.584.528-.65 4.817-1.01 8.313-5.32 8.313-10.25 0-5.777-4.699-10.475-10.475-10.475h-.836a.664.664 0 0 1 0-1.329h.836c6.508 0 11.803 5.295 11.803 11.803zm-8.164-4.523a.664.664 0 0 1-.664.664h-16.344a.664.664 0 0 1 0-1.328h16.344c.367 0 .664.297.664.664zm0 3.542a.664.664 0 0 1-.664.663h-16.344a.664.664 0 1 1 0-1.327h16.344c.367 0 .664.297.664.664zm0 3.541a.664.664 0 0 1-.664.665h-16.344a.664.664 0 0 1 0-1.329h16.344c.367 0 .664.298.664.664zm0 3.543a.664.664 0 0 1-.664.663h-8.712a.664.664 0 1 1 0-1.327h8.712c.367 0 .664.296.664.664zm-12.448 0a.664.664 0 0 1-.664.663h-.01a.664.664 0 1 1 0-1.327h.01c.366 0 .664.296.664.664z"/></defs><g><g transform="translate(-1152 -40)"><use fill="#92b069" xlink:href="#iafya"/></g></g></svg>