<svg xmlns="http://www.w3.org/2000/svg" xmlns:xlink="http://www.w3.org/1999/xlink" width="61" height="61" viewBox="0 0 61 61"><defs><path id="7dlwa" d="M1394 8632.697c0 10.643-8.658 19.301-19.301 19.301-10.643 0-19.301-8.658-19.301-19.301a1.191 1.191 0 0 1 2.383 0c0 8.929 6.952 16.263 15.727 16.876v-24.619a1.192 1.192 0 1 1 2.382 0v24.62c8.775-.614 15.727-7.948 15.727-16.877 0-9.328-7.59-16.918-16.918-16.918-1.365 0-2.72.164-4.033.485a19.208 19.208 0 0 1-4.717 7.684 19.173 19.173 0 0 1-13.648 5.652 19.174 19.174 0 0 1-13.648-5.652 19.175 19.175 0 0 1-5.653-13.649 19.175 19.175 0 0 1 5.653-13.647 19.174 19.174 0 0 1 13.648-5.654 19.172 19.172 0 0 1 13.648 5.654 19.175 19.175 0 0 1 5.652 13.647c0 1.152-.1 2.288-.296 3.398 1.116-.199 2.252-.3 3.394-.3 10.643 0 19.301 8.658 19.301 19.3zm-24.781-22.398c0-4.52-1.76-8.767-4.955-11.962a16.806 16.806 0 0 0-11.963-4.956c-4.12 0-8.014 1.464-11.09 4.143l20.28 20.28a1.191 1.191 0 0 1-1.685 1.685l-20.28-20.28a16.791 16.791 0 0 0-4.143 11.09c0 4.52 1.76 8.768 4.955 11.964a16.807 16.807 0 0 0 11.963 4.954c4.52 0 8.768-1.76 11.963-4.954a16.807 16.807 0 0 0 4.955-11.964zm6.672 9.89c0 .313-.128.62-.35.841a1.2 1.2 0 0 1-.842.35 1.193 1.193 0 0 1-.842-2.034c.222-.222.527-.35.842-.35a1.198 1.198 0 0 1 1.191 1.191zm-27.668-21.57a1.192 1.192 0 0 1-.796-2.246c.011-.004.031-.01.042-.015a1.192 1.192 0 0 1 .754 2.262zm14.51 2.934a1.19 1.19 0 0 1-1.686 0 12.416 12.416 0 0 0-9.272-3.611 1.192 1.192 0 0 1-.1-2.38 14.788 14.788 0 0 1 11.057 4.306c.465.465.465 1.22 0 1.685z"/></defs><g><g transform="translate(-1333 -8591)"><use fill="#f64d01" xlink:href="#7dlwa"/></g></g></svg>