<svg xmlns="http://www.w3.org/2000/svg" xmlns:xlink="http://www.w3.org/1999/xlink" width="61" height="61" viewBox="0 0 61 61"><defs><path id="2913a" d="M1389.026 8740.218v53.824a5.96 5.96 0 0 1-5.954 5.955h-30.484a5.96 5.96 0 0 1-5.955-5.955v-18.199a1.192 1.192 0 0 1 2.382 0v18.2a3.577 3.577 0 0 0 3.573 3.573h30.484a3.577 3.577 0 0 0 3.573-3.574v-32.476a23.97 23.97 0 0 1-4.405 1.165 25.461 25.461 0 0 1-4.199.345c-3.027 0-6.7-.527-10.67-2.23-8.955-3.84-16.28-1.239-18.356-.33v3.629a1.191 1.191 0 0 1-2.382 0v-23.927c0-.657.534-1.191 1.191-1.191h40.012c.657 0 1.19.534 1.19 1.191zm-2.381 18.779v-17.588h-37.63v16.539a23.876 23.876 0 0 1 4.427-1.174c3.436-.575 8.806-.715 14.868 1.883 4.407 1.89 8.928 2.475 13.437 1.741 2.319-.378 4.038-1.026 4.898-1.401zm-37.63 11.592c0 .314-.128.622-.349.843-.221.222-.529.349-.842.349-.313 0-.62-.127-.842-.35a1.198 1.198 0 0 1-.349-.842c0-.312.128-.62.35-.841a1.2 1.2 0 0 1 .841-.349c.313 0 .62.128.842.349a1.2 1.2 0 0 1 .35.841zm34.294 2.136v9.923a1.19 1.19 0 1 1-2.382 0v-9.923a1.19 1.19 0 1 1 2.382 0zm0 14.45c0 .312-.127.619-.35.84a1.198 1.198 0 0 1-.842.349 1.2 1.2 0 0 1-.841-.348 1.2 1.2 0 0 1-.35-.842c0-.315.128-.62.35-.843a1.2 1.2 0 0 1 .841-.35 1.196 1.196 0 0 1 1.19 1.193zm-40.486-13.855a7.336 7.336 0 0 1-2.162 5.22 7.335 7.335 0 0 1-5.221 2.162 7.335 7.335 0 0 1-5.22-2.162c-2.88-2.879-2.88-7.563 0-10.442 2.878-2.878 7.562-2.878 10.44 0a7.334 7.334 0 0 1 2.163 5.222zm-4.79 4.277l-6.87-6.87a5.01 5.01 0 0 0 .74 6.129 4.97 4.97 0 0 0 3.537 1.465c.93 0 1.82-.252 2.594-.724zm2.408-4.277c0-1.338-.52-2.593-1.465-3.538a4.988 4.988 0 0 0-3.536-1.463c-.9 0-1.799.242-2.593.724l6.87 6.87a4.97 4.97 0 0 0 .724-2.593zm5.177 19.295c0 4.071-3.313 7.384-7.384 7.384-4.07 0-7.383-3.313-7.383-7.384 0-4.072 3.312-7.384 7.383-7.384s7.384 3.312 7.384 7.384zm-8.575-4.857a5.01 5.01 0 0 0-3.81 4.857 5.01 5.01 0 0 0 3.81 4.857zm6.193 4.857a5.01 5.01 0 0 0-3.81-4.857v9.714a5.01 5.01 0 0 0 3.81-4.857z"/></defs><g><g transform="translate(-1328 -8739)"><use fill="#fa590e" xlink:href="#2913a"/></g></g></svg>